<?xml version="1.0" encoding="UTF-8"?><svg id="Layer_1" xmlns="http://www.w3.org/2000/svg" xmlns:xlink="http://www.w3.org/1999/xlink" viewBox="0 0 285 150"><defs><style>.cls-1{font-size:82.45px;}.cls-1,.cls-2{fill:#000001;font-family:TimesNewRomanPS-BoldMT, 'Times New Roman';font-weight:700;}.cls-2{font-size:31.18px;}.cls-3{fill:none;}.cls-3,.cls-4,.cls-5,.cls-6{stroke-width:0px;}.cls-7{clip-path:url(#clippath);}.cls-4,.cls-6{fill:#d31f26;}.cls-5{fill:#231f20;}.cls-6{fill-rule:evenodd;}</style><clipPath id="clippath"><rect class="cls-3" x="-17.88" y="5.74" width="321.53" height="138.52"/></clipPath></defs><g class="cls-7"><text class="cls-1" transform="translate(85.84 77.39) scale(1 1.03)"><tspan x="0" y="0">NIET</tspan></text><text class="cls-2" transform="translate(85.82 108.82) scale(1 1.03)"><tspan x="0" y="0">Gr</tspan></text><text class="cls-2" transform="translate(123.35 108.82) scale(1 1.03)"><tspan x="0" y="0">eater</tspan></text><text class="cls-2" transform="translate(190.27 108.82) scale(1 1.03)"><tspan x="0" y="0" xml:space="preserve"> Noida</tspan></text><path class="cls-5" d="M133.41,125.16h4.21v1.26h-4.21v-1.26ZM135.01,119.93h.96l3.01,8.01h-1.42l-2.07-5.97-2.06,5.97h-1.42l3.01-8.01Z"/><path class="cls-5" d="M141.28,125.7c0,.34.09.6.27.78.18.19.43.28.76.28s.58-.09.75-.27c.18-.17.26-.42.26-.75l.08,1.22c-.11.3-.3.55-.55.75-.26.2-.57.3-.94.3-.62,0-1.1-.2-1.44-.6-.34-.4-.51-.97-.51-1.7v-3.5h1.32v3.48ZM143.33,122.22h1.31v5.72h-1.31v-5.72Z"/><path class="cls-5" d="M145.8,122.22h2.69v1.15h-2.69v-1.15ZM147.78,127.97c-.48,0-.83-.13-1.06-.38-.22-.26-.33-.63-.33-1.13v-5.9h1.32v5.71c0,.14.03.25.08.32.05.08.14.11.24.11h.46v1.26h-.71Z"/><path class="cls-5" d="M152.17,126.76c.35,0,.62-.11.81-.32.19-.21.29-.51.29-.89v-.95c0-.38-.1-.68-.29-.89-.19-.21-.46-.31-.81-.31s-.62.11-.81.31c-.19.21-.29.5-.29.89v.95c0,.38.1.68.29.89.19.21.46.32.81.32M152.17,128.02c-.51,0-.94-.1-1.3-.29-.36-.2-.64-.48-.83-.85-.19-.37-.28-.82-.28-1.35v-.93c0-.52.09-.96.28-1.33.19-.37.47-.65.83-.84.36-.19.8-.29,1.3-.29s.95.1,1.31.29c.36.19.64.47.82.84.19.37.28.81.28,1.33v.95c0,.52-.09.97-.28,1.34-.19.37-.46.65-.82.85-.36.19-.8.29-1.31.29Z"/><path class="cls-5" d="M159.46,124.48c0-.34-.09-.61-.27-.79-.18-.19-.45-.28-.78-.28s-.57.09-.75.26c-.17.17-.26.42-.26.74l-.12-1.18c.18-.35.4-.62.66-.8.26-.18.57-.28.92-.28.61,0,1.09.2,1.42.61.33.41.5.98.5,1.72v3.47h-1.32v-3.47ZM156.07,122.22h1.32v5.72h-1.32v-5.72Z"/><path class="cls-5" d="M164.62,126.76c.35,0,.62-.11.81-.32.19-.21.29-.51.29-.89v-.95c0-.38-.1-.68-.29-.89-.19-.21-.46-.31-.81-.31s-.62.11-.81.31c-.19.21-.29.5-.29.89v.95c0,.38.1.68.29.89.19.21.46.32.81.32M164.62,128.02c-.51,0-.94-.1-1.3-.29-.36-.2-.64-.48-.83-.85-.19-.37-.28-.82-.28-1.35v-.93c0-.52.09-.96.28-1.33.19-.37.47-.65.83-.84.36-.19.8-.29,1.3-.29s.95.1,1.31.29c.36.19.64.47.82.84.19.37.28.81.28,1.33v.95c0,.52-.09.97-.28,1.34-.19.37-.46.65-.82.85-.36.19-.8.29-1.31.29Z"/><path class="cls-5" d="M171.9,124.56c0-.37-.09-.66-.27-.86-.18-.2-.44-.3-.77-.3s-.57.09-.75.26c-.17.17-.26.42-.26.74l-.12-1.18c.17-.35.39-.61.66-.8.27-.19.58-.28.92-.28.4,0,.75.09,1.03.28.29.19.5.46.65.82.15.36.23.8.23,1.31v3.39h-1.32v-3.38ZM168.52,122.22h1.32v5.72h-1.32v-5.72ZM175.27,124.56c0-.37-.09-.66-.27-.86-.18-.2-.44-.3-.78-.3-.32,0-.57.1-.74.29-.17.19-.26.47-.26.82l-.25-1.21c.18-.37.42-.66.71-.86.29-.2.61-.3.97-.3.41,0,.76.09,1.05.28.29.19.52.46.67.82.15.36.23.8.23,1.31v3.39h-1.32v-3.38Z"/><path class="cls-5" d="M180.44,126.76c.35,0,.62-.11.81-.32.19-.21.29-.51.29-.89v-.95c0-.38-.1-.68-.29-.89-.19-.21-.46-.31-.81-.31s-.62.11-.81.31c-.19.21-.29.5-.29.89v.95c0,.38.1.68.29.89.19.21.46.32.81.32M180.44,128.02c-.51,0-.94-.1-1.3-.29-.36-.2-.64-.48-.83-.85-.19-.37-.28-.82-.28-1.35v-.93c0-.52.09-.96.28-1.33.19-.37.47-.65.83-.84.36-.19.8-.29,1.3-.29s.95.1,1.31.29c.36.19.64.47.82.84.19.37.28.81.28,1.33v.95c0,.52-.09.97-.28,1.34-.19.37-.46.65-.82.85-.36.19-.8.29-1.31.29Z"/><path class="cls-5" d="M185.52,125.7c0,.34.09.6.27.78.18.19.43.28.76.28s.58-.09.75-.27c.18-.17.26-.42.26-.75l.08,1.22c-.11.3-.3.55-.55.75-.26.2-.57.3-.94.3-.62,0-1.1-.2-1.44-.6-.34-.4-.51-.97-.51-1.7v-3.5h1.32v3.48ZM187.56,122.22h1.31v5.72h-1.31v-5.72Z"/><path class="cls-5" d="M192.58,128.02c-.34,0-.66-.03-.97-.1-.31-.07-.6-.16-.87-.28-.27-.13-.51-.28-.73-.46l.8-.99c.29.21.59.36.9.47.3.11.6.16.88.16.4,0,.7-.05.91-.16.21-.11.31-.27.31-.48,0-.15-.05-.27-.15-.35-.1-.08-.23-.13-.39-.16-.16-.03-.37-.06-.66-.08-.05,0-.1,0-.14-.01-.05,0-.1,0-.15-.02-.01,0-.03,0-.04,0-.01,0-.03,0-.05,0-.4-.04-.73-.11-.99-.18-.26-.08-.47-.23-.65-.45-.17-.23-.26-.55-.26-.96,0-.39.09-.72.26-.99.17-.27.43-.47.77-.61.34-.14.76-.21,1.25-.21.3,0,.58.03.86.08.28.06.55.14.8.25.25.11.49.24.72.41l-.79.96c-.27-.16-.54-.28-.81-.37-.27-.08-.54-.13-.8-.13-.35,0-.61.05-.79.15-.18.1-.27.25-.27.44,0,.13.05.22.15.28.1.06.22.11.37.14.15.03.37.05.65.07.03,0,.06,0,.09,0,.03,0,.05,0,.08,0,.02,0,.03,0,.04,0,.02,0,.03,0,.04,0,.42.04.77.09,1.06.17.28.08.52.24.71.48.19.24.29.59.29,1.06,0,.4-.09.74-.28,1.02-.18.27-.46.49-.81.63-.36.14-.8.21-1.33.21"/><rect class="cls-5" x="199.41" y="119.93" width="1.34" height="8.01"/><path class="cls-5" d="M205.85,124.48c0-.34-.09-.61-.27-.79-.18-.19-.45-.28-.78-.28s-.57.09-.75.26c-.17.17-.26.42-.26.74l-.12-1.18c.18-.35.4-.62.66-.8.26-.18.57-.28.92-.28.61,0,1.09.2,1.42.61.33.41.5.98.5,1.72v3.47h-1.32v-3.47ZM202.46,122.22h1.32v5.72h-1.32v-5.72Z"/><path class="cls-5" d="M210.87,128.02c-.34,0-.66-.03-.97-.1-.31-.07-.6-.16-.87-.28-.27-.13-.51-.28-.73-.46l.8-.99c.29.21.59.36.9.47.3.11.6.16.88.16.4,0,.7-.05.91-.16.21-.11.31-.27.31-.48,0-.15-.05-.27-.15-.35-.1-.08-.23-.13-.39-.16-.16-.03-.37-.06-.66-.08-.05,0-.1,0-.14-.01-.05,0-.1,0-.15-.02-.01,0-.03,0-.04,0-.01,0-.03,0-.05,0-.4-.04-.73-.11-.99-.18-.26-.08-.47-.23-.65-.45-.17-.23-.26-.55-.26-.96,0-.39.09-.72.26-.99.17-.27.43-.47.77-.61.34-.14.76-.21,1.25-.21.3,0,.58.03.86.08.28.06.55.14.8.25.25.11.49.24.72.41l-.79.96c-.27-.16-.54-.28-.81-.37-.27-.08-.54-.13-.8-.13-.35,0-.61.05-.79.15-.18.1-.27.25-.27.44,0,.13.05.22.15.28.1.06.22.11.37.14.15.03.37.05.65.07.03,0,.06,0,.09,0,.03,0,.05,0,.08,0,.02,0,.03,0,.04,0,.02,0,.03,0,.04,0,.42.04.77.09,1.05.17.28.08.52.24.71.48.19.24.29.59.29,1.06,0,.4-.09.74-.28,1.02-.18.27-.46.49-.81.63-.36.14-.8.21-1.33.21"/><path class="cls-5" d="M214.17,122.22h2.69v1.15h-2.69v-1.15ZM216.16,127.97c-.48,0-.83-.13-1.06-.38-.22-.26-.33-.63-.33-1.13v-5.9h1.32v5.71c0,.14.03.25.08.32.05.08.14.11.24.11h.46v1.26h-.71Z"/><path class="cls-5" d="M218.26,122.22h1.32v5.72h-1.32v-5.72ZM218.26,119.93h1.32v1.32h-1.32v-1.32Z"/><path class="cls-5" d="M220.69,122.22h2.69v1.15h-2.69v-1.15ZM222.67,127.97c-.48,0-.83-.13-1.06-.38-.22-.26-.33-.63-.33-1.13v-5.9h1.32v5.71c0,.14.03.25.08.32.05.08.14.11.24.11h.46v1.26h-.71Z"/><path class="cls-5" d="M226.13,125.7c0,.34.09.6.27.78.18.19.43.28.76.28s.58-.09.75-.27c.18-.17.26-.42.26-.75l.08,1.22c-.11.3-.3.55-.55.75-.26.2-.57.3-.94.3-.62,0-1.1-.2-1.44-.6-.34-.4-.51-.97-.51-1.7v-3.5h1.32v3.48ZM228.17,122.22h1.31v5.72h-1.31v-5.72Z"/><path class="cls-5" d="M230.64,122.22h2.69v1.15h-2.69v-1.15ZM232.63,127.97c-.48,0-.83-.13-1.06-.38-.22-.26-.33-.63-.33-1.13v-5.9h1.32v5.71c0,.14.03.25.08.32.05.08.14.11.24.11h.46v1.26h-.71Z"/><path class="cls-5" d="M237.16,128.02c-.54,0-1-.1-1.38-.3-.38-.2-.68-.49-.88-.88-.2-.38-.3-.84-.3-1.38v-.65c0-.57.1-1.05.29-1.45.19-.4.47-.71.84-.91.37-.21.81-.31,1.33-.31.49,0,.91.12,1.25.37.35.24.61.6.79,1.06.18.46.27,1.02.27,1.67v.38h-3.89v-.96h2.66v-.07c-.04-.4-.15-.71-.34-.93-.19-.22-.44-.33-.76-.33-.39,0-.7.12-.91.37-.22.25-.33.6-.33,1.06v.73c0,.43.12.76.35.99.23.23.56.35.99.35.22,0,.43-.04.64-.12.21-.08.4-.2.57-.35l.86.81c-.29.27-.61.48-.98.63-.36.15-.73.22-1.09.22"/><path class="cls-5" d="M7.72,123.59v1.17c0,.47-.09.88-.28,1.24-.18.36-.45.63-.79.83-.34.2-.74.29-1.18.29s-.85-.09-1.19-.28c-.34-.18-.61-.44-.8-.78-.19-.34-.28-.72-.28-1.17v-1.86c0-.47.09-.88.28-1.24.19-.36.45-.63.79-.83.34-.2.73-.29,1.18-.29.37,0,.71.08,1.02.23.31.16.57.37.78.66.21.28.35.61.42.98h-1.12c-.05-.17-.13-.32-.24-.45-.11-.12-.24-.22-.39-.28-.15-.07-.31-.1-.47-.1-.24,0-.44.05-.62.16-.18.11-.32.26-.41.46-.1.2-.15.43-.15.69v1.86c0,.23.05.44.15.62.1.18.24.31.42.41.18.1.39.15.63.15s.45-.05.62-.15c.18-.1.32-.25.41-.45.1-.2.15-.43.15-.69v-.19h-1.12v-.99h2.19Z"/><path class="cls-5" d="M10.86,127.11c-.42,0-.79-.08-1.09-.24-.3-.16-.53-.39-.69-.69-.16-.3-.24-.66-.24-1.09v-.51c0-.45.08-.83.23-1.14.15-.32.37-.56.66-.72.29-.16.64-.25,1.05-.25.38,0,.71.1.99.29.27.19.48.47.62.84.14.36.21.8.21,1.32v.3h-3.06v-.76h2.1v-.05c-.03-.31-.12-.56-.27-.73-.15-.17-.35-.26-.6-.26-.31,0-.55.1-.72.29-.17.19-.26.47-.26.83v.57c0,.34.09.6.28.78.18.18.44.28.78.28.17,0,.34-.03.5-.09.17-.06.32-.16.45-.27l.68.64c-.23.21-.48.38-.77.5-.28.12-.57.18-.86.18"/><path class="cls-5" d="M13.39,122.54h2.12v.91h-2.12v-.91ZM14.95,127.07c-.38,0-.66-.1-.83-.3-.18-.2-.26-.5-.26-.89v-4.64h1.04v4.5c0,.11.02.2.07.25.04.06.11.09.19.09h.36v.99h-.56Z"/><path class="cls-5" d="M19.54,120.74h3.62v.99h-3.62v-.99ZM19.54,123.47h3.14v.99h-3.14v-.99ZM19.11,120.74h1.04v6.31h-1.04v-6.31Z"/><path class="cls-5" d="M25.03,125.28c0,.26.07.47.21.62.14.15.34.22.6.22s.45-.07.59-.21c.14-.14.21-.33.21-.59l.06.96c-.09.24-.23.43-.43.59-.2.16-.45.24-.74.24-.49,0-.87-.16-1.14-.47-.27-.32-.4-.76-.4-1.34v-2.76h1.04v2.74ZM26.64,122.54h1.03v4.5h-1.03v-4.5Z"/><path class="cls-5" d="M28.58,122.54h2.12v.91h-2.12v-.91ZM30.14,127.07c-.38,0-.66-.1-.83-.3-.18-.2-.26-.5-.26-.89v-4.64h1.04v4.5c0,.11.02.2.07.25.04.06.11.09.19.09h.36v.99h-.56Z"/><path class="cls-5" d="M32.86,125.28c0,.26.07.47.21.62.14.15.34.22.6.22s.45-.07.59-.21c.14-.14.21-.33.21-.59l.06.96c-.09.24-.23.43-.43.59-.2.16-.45.24-.74.24-.49,0-.87-.16-1.14-.47-.27-.32-.4-.76-.4-1.34v-2.76h1.04v2.74ZM34.48,122.54h1.03v4.5h-1.03v-4.5Z"/><path class="cls-5" d="M39.27,123.7c-.07-.08-.16-.13-.26-.17-.1-.04-.22-.06-.35-.06-.26,0-.46.08-.61.23-.14.15-.21.37-.21.64l-.09-1.02c.13-.27.31-.48.51-.63.21-.15.44-.22.69-.22.2,0,.37.03.53.09.16.06.3.15.42.26l-.63.87ZM36.77,122.54h1.08v4.5h-1.08v-4.5Z"/><path class="cls-5" d="M42.36,127.11c-.42,0-.79-.08-1.09-.24-.3-.16-.53-.39-.69-.69-.16-.3-.24-.66-.24-1.09v-.51c0-.45.08-.83.23-1.14.15-.32.37-.56.66-.72.29-.16.64-.25,1.05-.25.38,0,.71.1.99.29.27.19.48.47.62.84.14.36.21.8.21,1.32v.3h-3.06v-.76h2.09v-.05c-.03-.31-.12-.56-.27-.73-.15-.17-.35-.26-.6-.26-.31,0-.55.1-.72.29-.17.19-.26.47-.26.83v.57c0,.34.09.6.28.78.18.18.44.28.78.28.17,0,.34-.03.5-.09.17-.06.32-.16.45-.27l.68.64c-.23.21-.48.38-.77.5-.28.12-.57.18-.86.18"/><path class="cls-5" d="M49.66,124.25l1.08-.2,1.66,3h-1.25l-1.49-2.8ZM47.71,120.74h1.04v6.31h-1.04v-6.31ZM48.14,123.45h2.17c.15,0,.27-.04.38-.11.11-.07.2-.17.26-.3.06-.13.09-.28.1-.45,0-.17-.03-.32-.09-.45-.06-.13-.15-.23-.26-.3-.11-.07-.24-.11-.39-.11h-2.17v-.99h2.2c.36,0,.67.08.94.23.27.15.48.37.63.65.15.28.22.6.22.97s-.07.7-.22.98c-.15.28-.36.5-.63.65-.27.15-.58.23-.94.23h-2.2v-.99Z"/><path class="cls-5" d="M55.12,127.11c-.42,0-.79-.08-1.09-.24-.3-.16-.53-.39-.69-.69-.16-.3-.24-.66-.24-1.09v-.51c0-.45.08-.83.23-1.14.15-.32.37-.56.66-.72.29-.16.64-.25,1.05-.25.38,0,.71.1.99.29.27.19.48.47.62.84.14.36.21.8.21,1.32v.3h-3.06v-.76h2.09v-.05c-.03-.31-.12-.56-.27-.73-.15-.17-.35-.26-.6-.26-.31,0-.55.1-.72.29-.17.19-.26.47-.26.83v.57c0,.34.09.6.28.78.18.18.44.28.78.28.17,0,.34-.03.5-.09.17-.06.32-.16.45-.27l.68.64c-.23.21-.48.38-.77.5-.28.12-.57.18-.86.18"/><path class="cls-5" d="M59.33,127.11c-.52,0-.9-.12-1.16-.35-.26-.23-.39-.58-.39-1.05s.13-.78.39-1c.26-.22.65-.33,1.17-.33h1.21l.06.81h-1.26c-.21,0-.36.04-.46.13-.1.09-.15.22-.15.4,0,.19.07.33.2.42.13.09.33.13.6.13.33,0,.57-.04.73-.11.16-.07.24-.19.24-.34l.09.65c-.05.14-.13.26-.26.36-.12.09-.27.17-.44.21-.17.05-.36.07-.57.07M60.51,124.19c0-.25-.08-.45-.22-.58-.15-.14-.36-.21-.63-.21-.17,0-.35.03-.51.08-.17.05-.32.13-.45.23l-.69-.58c.18-.2.41-.36.69-.48.29-.11.6-.17.95-.17.38,0,.71.07.98.2.27.13.48.32.62.57.14.25.21.55.21.9v2.89h-.96v-2.85Z"/><path class="cls-5" d="M64.13,127.12c-.32,0-.6-.07-.83-.22-.23-.15-.41-.36-.53-.65-.12-.28-.18-.62-.18-1.02v-.86c0-.4.06-.74.18-1.02.12-.29.29-.5.52-.65.23-.15.5-.22.82-.22.25,0,.49.07.7.21.21.14.38.34.51.6l-.09.96c0-.17-.03-.32-.09-.44-.06-.12-.15-.21-.27-.28-.12-.06-.26-.09-.42-.09-.26,0-.46.08-.6.25-.14.17-.21.4-.21.7v.85c0,.3.07.53.21.69.14.16.34.24.6.24.16,0,.3-.03.42-.09.12-.06.2-.16.27-.28.06-.12.09-.27.09-.44l.06.99c-.09.24-.23.42-.43.56-.2.14-.44.21-.72.21M65.22,120.74h1.04v6.31h-1.04v-6.31Z"/><path class="cls-5" d="M67.04,122.54h1.01l1.45,3.91-.62.96-1.84-4.87ZM71.11,122.54l-1.96,5.56c-.07.21-.16.37-.28.49-.11.12-.25.21-.41.26-.16.05-.37.08-.61.08h-.22v-1h.22c.15,0,.27-.03.36-.09.09-.06.16-.17.22-.31l1.67-4.97h1.01Z"/><path class="cls-6" d="M73.04,29.26v45.66c-.2.6-.41,1.19-.62,1.77v.03c-.11.28-.21.55-.32.82l-.03.09c-.1.26-.2.52-.3.78l-.03.09c-.1.26-.2.51-.3.76l-.04.1c-.1.24-.2.49-.3.73l-.06.14c-.1.23-.19.46-.29.68l-.07.16c-.1.23-.2.45-.3.68l-.06.13c-.1.23-.21.45-.31.67l-.07.15c-.1.22-.21.44-.31.65l-.07.15c-.1.21-.2.41-.3.62l-.1.2c-.1.19-.19.38-.29.57l-.11.21c-.09.18-.19.36-.29.54l-.13.24c-.09.18-.19.35-.29.52l-.13.24c-.09.17-.19.33-.28.5l-.14.25c-.09.16-.18.32-.28.48l-.16.27c-.09.15-.18.3-.27.45l-.17.27c-.09.15-.18.29-.27.44-.07.11-.14.23-.21.34-.08.12-.15.24-.23.35-.1.15-.19.3-.29.45l-.16.24c-.1.16-.21.31-.31.47l-.15.22c-.1.15-.21.3-.31.45l-.16.22c-.12.17-.24.33-.35.49l-.12.16c-.13.18-.26.36-.4.53l-.07.1c-.14.18-.28.37-.42.55l-.08.1c-.14.18-.28.36-.43.54l-.06.08c-.15.19-.3.38-.46.57l-.04.05c-.16.19-.32.39-.48.58l-.02.03c-.17.2-.33.39-.5.58l-.02.02c-.17.19-.33.38-.5.57l-.04.04c-.16.18-.33.36-.49.54l-.07.07c-.16.18-.33.35-.49.52h0s0,0,0,0c-6.08,6.36-13.55,11.01-22.3,14.07-17.17-6.01-29.41-18.11-35.88-37.34v-10.34h2.01v10.01c5.86,17.21,16.78,29.35,33.87,35.54,9.14-3.31,16.52-8.33,22.3-14.91V21.07h13.58v8.19Z"/><path class="cls-6" d="M54.89,22.12s-8.27.34-15.97,6.1c-3.34,2.5-5.44,5.16-7.02,7.81-13.24-.69-24.9-9.87-30.38-14.95h-.24v9.98c15.06,7.41,25.13,7.97,29.09,7.81-.18.37-.36.73-.53,1.1-11.28,6.15-24.06,2.43-28.56.77v8.08c12.3,1.43,22.68-2.77,26.53-4.61-1.96,3.79-4.45,7.14-10.15,9.41-3.85,1.54-9.17,2.54-16.39,1.97v9.44s19.74.75,28.51-14.71c0,0,1.46-2.71,3.16-7.18,1.7-4.47,5.93-15.34,21.93-21.02"/><path class="cls-6" d="M53.6,103.47l-.02.02.02-.02ZM54.23,102.98c-.12.1-.25.2-.37.29.12-.1.25-.19.37-.29ZM53.58,41.91h2.86v56.46c-.92.88-1.87,1.73-2.86,2.54v-59Z"/><path class="cls-6" d="M48.33,107.07c-.18.11-.36.21-.54.32.18-.11.36-.21.54-.32M48.96,106.69c-.15.1-.31.19-.47.28.16-.09.31-.19.47-.28ZM49.94,106.07c-.1.07-.21.14-.32.2-.12.07-.23.15-.35.22.12-.07.23-.15.35-.22l.32-.2ZM47.78,51.63h2.86v51.52c-.93.66-1.88,1.29-2.86,1.89v-53.41Z"/><path class="cls-6" d="M41.92,61.46h2.86v45.3c-.93.49-1.88.96-2.86,1.41v-46.72Z"/><path class="cls-6" d="M37.92,111.99c-.25.09-.51.18-.76.27.26-.09.51-.18.76-.27M38.68,111.71c-.23.09-.45.17-.68.25.23-.08.46-.17.68-.25ZM39.43,111.43c-.2.08-.4.16-.6.23.2-.08.4-.15.6-.23ZM6.16,81.74c-.06-.12-.11-.24-.17-.37.06.12.11.25.17.37ZM6.51,82.47c-.06-.12-.12-.24-.17-.36.06.12.12.24.17.36ZM6.89,83.25c-.08-.16-.16-.32-.24-.48.08.16.16.32.24.48ZM7.22,83.9c-.06-.12-.12-.24-.18-.36.06.12.12.24.18.36ZM16.68,97.18c-.09-.09-.18-.18-.26-.27.09.09.18.18.26.27ZM29.13,106.54c-.16-.09-.32-.18-.48-.26.16.09.32.18.48.26ZM29.86,106.93c-.16-.09-.33-.17-.49-.26.16.09.32.17.49.26ZM30.6,107.31c-.2-.1-.41-.21-.61-.31.2.1.41.21.61.31ZM31.33,107.67c-.2-.1-.4-.2-.6-.3.2.1.4.2.6.3ZM32.1,108.04c-.21-.1-.42-.2-.63-.3.21.1.42.2.63.3ZM35.1,109.34c-.98-.39-1.93-.81-2.87-1.24.93.43,1.89.85,2.87,1.24ZM35.89,109.65c-.21-.08-.43-.17-.64-.25.21.08.43.17.64.25ZM27.93,105.87h9.27v3.84h-1.16c.37.14.75.28,1.12.42.78-.28,1.55-.58,2.3-.89v-36.82H3.29v2.17c.77,2.27,1.63,4.44,2.58,6.53h31.32v3.84H7.78c1.68,3.11,3.58,6,5.73,8.65h23.69v3.84h-20.26c3.34,3.37,7.15,6.28,11.47,8.7-.16-.09-.32-.18-.48-.27Z"/><path class="cls-6" d="M49.37,30.38c2.69,0,4.88,2.18,4.88,4.88s-2.18,4.88-4.88,4.88-4.88-2.18-4.88-4.88,2.18-4.88,4.88-4.88"/><path class="cls-4" d="M25.17,114.06h2.58v.69h-2.58v-.69ZM25.17,115.93h2.25v.69h-2.25v-.69ZM25.17,117.76h2.58v.69h-2.58v-.69ZM24.87,114.06h.72v4.39h-.72v-4.39Z"/><path class="cls-4" d="M29.66,118.5c-.19,0-.36-.02-.53-.05-.17-.04-.33-.09-.48-.16-.15-.07-.28-.15-.4-.25l.44-.54c.16.11.32.2.49.26.17.06.33.09.48.09.22,0,.39-.03.5-.09.11-.06.17-.15.17-.26,0-.08-.03-.15-.08-.19-.06-.04-.13-.07-.21-.09-.09-.02-.2-.03-.36-.05-.03,0-.05,0-.08,0-.03,0-.06,0-.08,0,0,0-.02,0-.02,0,0,0-.02,0-.02,0-.22-.02-.4-.06-.54-.1-.14-.04-.26-.13-.35-.25-.1-.12-.14-.3-.14-.53,0-.22.05-.4.14-.55.09-.15.24-.26.42-.33.19-.08.41-.11.69-.11.16,0,.32.02.47.05.15.03.3.08.44.14.14.06.27.13.39.22l-.43.52c-.15-.09-.3-.16-.45-.2-.15-.05-.3-.07-.44-.07-.19,0-.33.03-.43.08-.1.05-.15.13-.15.24,0,.07.03.12.08.16.05.04.12.06.2.07.08.01.2.03.35.04.02,0,.03,0,.05,0,.01,0,.03,0,.05,0,0,0,.02,0,.02,0,0,0,.02,0,.02,0,.23.02.42.05.58.1.15.04.28.13.39.26.11.13.16.32.16.58,0,.22-.05.41-.15.56-.1.15-.25.27-.45.34-.2.08-.44.12-.73.12"/><path class="cls-4" d="M31.47,115.32h1.47v.63h-1.47v-.63ZM32.56,118.47c-.26,0-.46-.07-.58-.21-.12-.14-.18-.35-.18-.62v-3.23h.72v3.13c0,.08.01.14.05.18.03.04.07.06.13.06h.25v.69h-.39Z"/><path class="cls-4" d="M34.71,118.5c-.23,0-.42-.05-.58-.15-.16-.1-.28-.25-.37-.45-.08-.2-.12-.43-.12-.71v-.6c0-.28.04-.52.12-.71.08-.2.2-.35.36-.45.16-.1.35-.16.57-.16.18,0,.34.05.48.15.15.1.26.24.35.42l-.06.67c0-.12-.02-.22-.06-.31-.04-.08-.1-.15-.18-.19-.08-.04-.18-.07-.29-.07-.18,0-.32.06-.42.18-.1.12-.15.28-.15.49v.59c0,.21.05.37.15.48.1.11.24.17.42.17.11,0,.21-.02.29-.07.08-.04.14-.11.18-.19.04-.08.06-.19.06-.31l.04.69c-.06.16-.16.29-.3.39-.14.1-.3.15-.5.15M35.47,114.06h.72v4.39h-.72v-4.39Z"/><rect class="cls-4" x="36.94" y="117.72" width=".74" height=".74"/><path class="cls-4" d="M38.37,117.81l1.52-2.01c.08-.1.14-.21.18-.32.04-.11.06-.21.06-.31h0c0-.15-.05-.27-.13-.35-.09-.08-.22-.12-.38-.12s-.28.05-.38.15c-.1.1-.16.24-.18.42h0s-.74,0-.74,0h0c.03-.27.1-.49.21-.68.11-.19.26-.33.45-.43.18-.1.4-.15.64-.15.27,0,.5.05.69.13.19.09.34.22.43.39.1.17.15.38.15.62h0c0,.18-.03.36-.1.54-.07.18-.16.35-.28.51l-1.17,1.55h1.58v.69h-2.54v-.64Z"/><path class="cls-4" d="M42.91,117.81c.19,0,.33-.06.43-.17.09-.11.14-.28.14-.49v-1.78c0-.21-.05-.38-.14-.49-.09-.11-.23-.17-.43-.17s-.33.06-.43.17c-.09.11-.14.28-.14.49v1.78c0,.21.05.38.14.49.09.11.23.17.42.17M42.91,118.5c-.42,0-.74-.11-.96-.33-.22-.22-.33-.53-.33-.92v-2c0-.39.11-.7.33-.92.22-.22.54-.33.95-.33s.74.11.96.33c.22.22.33.52.33.92v2c0,.39-.11.7-.33.92-.22.22-.54.33-.96.33Z"/><path class="cls-4" d="M46.2,117.81c.19,0,.33-.06.43-.17.09-.11.14-.28.14-.49v-1.78c0-.21-.05-.38-.14-.49-.09-.11-.23-.17-.43-.17s-.33.06-.43.17c-.09.11-.14.28-.14.49v1.78c0,.21.05.38.14.49.09.11.23.17.42.17M46.2,118.5c-.42,0-.74-.11-.96-.33-.22-.22-.33-.53-.33-.92v-2c0-.39.11-.7.33-.92.22-.22.54-.33.95-.33s.74.11.96.33c.22.22.33.52.33.92v2c0,.39-.11.7-.33.92-.22.22-.54.33-.96.33Z"/><polygon class="cls-4" points="49.45 118.45 48.73 118.45 48.73 114.88 48.15 115.18 48.15 114.42 48.79 114.06 49.45 114.06 49.45 118.45"/></g></svg>